<svg xmlns="http://www.w3.org/2000/svg" xmlns:xlink="http://www.w3.org/1999/xlink" width="157" zoomAndPan="magnify" viewBox="0 0 117.75 117.749996" height="157" preserveAspectRatio="xMidYMid meet" version="1.0"><defs><clipPath id="300654b011"><path d="M 35.324219 35.324219 L 82.574219 35.324219 L 82.574219 82.574219 L 35.324219 82.574219 Z M 35.324219 35.324219 " clip-rule="nonzero"/></clipPath><clipPath id="60e640b91a"><path d="M 0.726562 0.726562 L 117.023438 0.726562 L 117.023438 117.023438 L 0.726562 117.023438 Z M 0.726562 0.726562 " clip-rule="nonzero"/></clipPath><clipPath id="bab5337207"><path d="M 58.875 0.726562 C 26.761719 0.726562 0.726562 26.761719 0.726562 58.875 C 0.726562 90.988281 26.761719 117.023438 58.875 117.023438 C 90.988281 117.023438 117.023438 90.988281 117.023438 58.875 C 117.023438 26.761719 90.988281 0.726562 58.875 0.726562 Z M 58.875 0.726562 " clip-rule="nonzero"/></clipPath><clipPath id="0dc88059ff"><path d="M 29.886719 24.0625 L 87.636719 24.0625 L 87.636719 93.8125 L 29.886719 93.8125 Z M 29.886719 24.0625 " clip-rule="nonzero"/></clipPath></defs><g clip-path="url(#300654b011)"><path fill="#000000" d="M 58.949219 82.574219 C 45.921875 82.574219 35.324219 71.976562 35.324219 58.949219 C 35.324219 45.921875 45.921875 35.324219 58.949219 35.324219 C 71.976562 35.324219 82.574219 45.921875 82.574219 58.949219 C 82.574219 71.976562 71.976562 82.574219 58.949219 82.574219 Z M 58.949219 39.984375 C 48.492188 39.984375 39.984375 48.492188 39.984375 58.949219 C 39.984375 69.410156 48.492188 77.917969 58.949219 77.917969 C 69.410156 77.917969 77.917969 69.410156 77.917969 58.949219 C 77.917969 48.492188 69.410156 39.984375 58.949219 39.984375 Z M 58.949219 39.984375 " fill-opacity="1" fill-rule="nonzero"/></g><path fill="#000000" d="M 67.628906 64.097656 L 62.480469 58.949219 L 67.628906 53.800781 C 68.605469 52.828125 68.605469 51.246094 67.628906 50.269531 C 66.652344 49.296875 65.074219 49.296875 64.101562 50.269531 L 58.949219 55.421875 L 53.800781 50.269531 C 52.828125 49.296875 51.25 49.296875 50.273438 50.269531 C 49.296875 51.246094 49.296875 52.824219 50.273438 53.800781 L 55.421875 58.949219 L 50.273438 64.097656 C 49.296875 65.074219 49.296875 66.652344 50.273438 67.628906 C 51.246094 68.605469 52.828125 68.605469 53.800781 67.628906 L 58.949219 62.476562 L 64.101562 67.628906 C 65.074219 68.605469 66.65625 68.605469 67.628906 67.628906 C 68.605469 66.65625 68.605469 65.074219 67.628906 64.097656 Z M 67.628906 64.097656 " fill-opacity="1" fill-rule="nonzero"/><g clip-path="url(#60e640b91a)"><g clip-path="url(#bab5337207)"><path fill="#fffbeb" d="M 0.726562 0.726562 L 117.023438 0.726562 L 117.023438 117.023438 L 0.726562 117.023438 Z M 0.726562 0.726562 " fill-opacity="1" fill-rule="nonzero"/></g></g><path fill="#f8c200" d="M 71.257812 45.683594 L 46.261719 45.683594 C 45.457031 45.683594 44.984375 46.785156 45.5 47.523438 C 47.980469 51.222656 51.339844 53.871094 55.152344 54.90625 C 56.527344 55.28125 57.484375 56.773438 57.402344 58.433594 L 56.832031 70.835938 C 56.761719 72.441406 55.445312 73.695312 53.847656 73.695312 L 44.210938 73.695312 C 43.835938 73.695312 43.503906 73.945312 43.335938 74.335938 C 42.515625 76.261719 41.894531 78.339844 41.519531 80.558594 C 41.394531 81.269531 41.851562 81.941406 42.476562 81.941406 L 75.058594 81.941406 C 75.683594 81.941406 76.140625 81.269531 76.015625 80.558594 C 75.640625 78.355469 75.015625 76.261719 74.199219 74.335938 C 74.03125 73.945312 73.699219 73.695312 73.324219 73.695312 L 63.699219 73.695312 C 62.101562 73.695312 60.796875 72.441406 60.714844 70.835938 L 60.148438 58.433594 C 60.0625 56.773438 61.019531 55.28125 62.394531 54.90625 C 66.207031 53.859375 69.566406 51.207031 72.046875 47.523438 C 72.535156 46.773438 72.074219 45.683594 71.257812 45.683594 Z M 71.257812 45.683594 " fill-opacity="1" fill-rule="nonzero"/><g clip-path="url(#0dc88059ff)"><path fill="#f8c200" d="M 80.6875 33.671875 L 86.433594 33.671875 C 87.082031 33.671875 87.597656 33.058594 87.597656 32.304688 L 87.597656 25.246094 C 87.597656 24.589844 87.070312 24.0625 86.417969 24.0625 L 31.085938 24.0625 C 30.4375 24.0625 29.910156 24.589844 29.910156 25.246094 L 29.910156 32.304688 C 29.910156 33.058594 30.4375 33.671875 31.074219 33.671875 L 36.816406 33.671875 C 37.246094 45.265625 43.167969 55.253906 51.6875 58.9375 C 43.167969 62.621094 37.261719 72.609375 36.816406 84.199219 L 31.085938 84.199219 C 30.4375 84.199219 29.921875 84.8125 29.921875 85.566406 L 29.921875 92.625 C 29.921875 93.28125 30.449219 93.8125 31.101562 93.8125 L 86.433594 93.8125 C 87.082031 93.8125 87.609375 93.28125 87.609375 92.625 L 87.609375 85.566406 C 87.609375 84.8125 87.082031 84.199219 86.445312 84.199219 L 80.703125 84.199219 C 80.273438 72.609375 74.351562 62.621094 65.832031 58.9375 C 74.335938 55.253906 80.257812 45.265625 80.6875 33.671875 Z M 63.433594 56.957031 C 62.65625 57.207031 62.144531 58 62.144531 58.9375 C 62.144531 59.886719 62.671875 60.679688 63.433594 60.917969 C 71.882812 63.597656 77.886719 73.054688 78.34375 84.199219 L 39.175781 84.199219 C 39.632812 73.054688 45.636719 63.597656 54.085938 60.917969 C 54.863281 60.667969 55.375 59.871094 55.375 58.9375 C 55.375 57.988281 54.847656 57.191406 54.085938 56.957031 C 45.636719 54.277344 39.632812 44.820312 39.175781 33.671875 L 78.34375 33.671875 C 77.886719 44.820312 71.882812 54.277344 63.433594 56.957031 Z M 63.433594 56.957031 " fill-opacity="1" fill-rule="nonzero"/></g></svg>